<?xml version="1.0" encoding="UTF-8"?>
<svg width="100px" height="50px" viewBox="0 0 100 50" version="1.1" xmlns="http://www.w3.org/2000/svg" xmlns:xlink="http://www.w3.org/1999/xlink">
    <!-- Generator: Sketch 44.1 (41455) - http://www.bohemiancoding.com/sketch -->
    <title>main-mercado-pago</title>
    <desc>Created with Sketch.</desc>
    <defs></defs>
    <g id="Payment-Logos" stroke="none" stroke-width="1" fill="none" fill-rule="evenodd">
        <g id="main-mercado-pago">
            <g id="Page-1" transform="translate(7.000000, 14.000000)">
                <path d="M31.4259982,10.091931 C31.4259982,4.532 24.3915027,0 15.7131133,0 C7.03624602,0 0.00175044248,4.532 0.00175044248,10.091931 C0.00175044248,10.2353103 0.000228318584,10.632069 0.000228318584,10.6828966 C0.000228318584,16.5804138 6.14808673,21.3582069 15.7115912,21.3582069 C25.3336973,21.3582069 31.4259982,16.581931 31.4259982,10.6836552 L31.4259982,10.091931 Z" id="Fill-1" fill="#000000"></path>
                <path d="M30.8243788,10.0871517 C30.8243788,15.3284621 24.0608212,19.5782552 15.7165381,19.5782552 C7.37301593,19.5782552 0.608697345,15.3284621 0.608697345,10.0871517 C0.608697345,4.84508276 7.37301593,0.596048276 15.7165381,0.596048276 C24.0608212,0.596048276 30.8243788,4.84508276 30.8243788,10.0871517" id="Fill-3" fill="#00ADEE"></path>
                <path d="M10.7000743,7.09264828 C10.6924637,7.10782069 10.5417735,7.26106207 10.6391894,7.3832 C10.8774018,7.68285517 11.6141097,7.85430345 12.3584283,7.69044138 C12.8021274,7.59257931 13.3706407,7.14878621 13.9208885,6.7194069 C14.5175611,6.25437241 15.1096673,5.78782069 15.7040566,5.60271724 C16.3342159,5.40547586 16.7383398,5.49044138 17.0047115,5.56933793 C17.2977204,5.65506207 17.6417204,5.84395862 18.190446,6.24906207 C19.2239681,7.01147586 23.3808885,10.5747172 24.099331,11.1907172 C24.6777381,10.9335448 27.2486053,9.8472 30.7418796,9.09161379 C30.4382159,7.26257931 29.3049947,5.58906207 27.5872779,4.2189931 C25.1922159,5.20671724 22.2659327,5.72182069 19.4043398,4.34947586 C19.3898796,4.3434069 17.8411186,3.62423448 16.3129062,3.65913103 C14.0426584,3.71071724 13.0593664,4.67568276 12.0182336,5.69754483 L10.7000743,7.09264828 Z" id="Fill-5" fill="#FFFFFF"></path>
                <path d="M23.930223,11.5784483 C23.881515,11.5352069 19.0426832,7.37796552 17.9459929,6.56851724 C17.3120283,6.1012069 16.9588956,5.98286207 16.5890195,5.93582759 C16.3957097,5.91155172 16.1293381,5.94644828 15.9428779,5.99651724 C15.4329664,6.13306897 14.7662761,6.5707931 14.1741699,7.03127586 C13.561515,7.51072414 12.983108,7.96286207 12.4473204,8.08044828 C11.7616035,8.23141379 10.9251965,8.05313793 10.5439044,7.79975862 C10.3886478,7.69734483 10.2798159,7.57975862 10.2280637,7.45913793 C10.0865062,7.13824138 10.3467894,6.88182759 10.3894088,6.83858621 L11.7250726,5.42072414 C11.8803292,5.26824138 12.0363469,5.11575862 12.1961699,4.96631034 C11.7654088,5.02168966 11.3673735,5.12941379 10.9792319,5.23562069 C10.4959575,5.36913793 10.0301876,5.49582759 9.55985133,5.49582759 C9.36273628,5.49582759 8.31018761,5.32589655 8.11002832,5.2727931 C6.90146195,4.94810345 5.84130265,4.63175862 4.25677168,3.90575862 C2.35868319,5.29327586 1.08923186,7.02824138 0.7224,8.93996552 C0.995621239,9.01051724 1.43475398,9.13872414 1.61969204,9.17893103 C5.91512566,10.1173448 7.25307257,11.0838276 7.49585133,11.2848621 C7.7584177,10.9981034 8.13742655,10.8167931 8.56057699,10.8167931 C9.03624071,10.8167931 9.46471858,11.0512069 9.72500177,11.4138276 C9.97082478,11.2226552 10.3102584,11.0603103 10.7486301,11.0603103 C10.9480283,11.0603103 11.1542761,11.0967241 11.3635681,11.1665172 C11.8483646,11.3296207 12.0979929,11.6467241 12.2281345,11.9334828 C12.3902407,11.8606552 12.5904,11.8083103 12.8255681,11.8083103 C13.056931,11.8083103 13.2974265,11.8598966 13.5402053,11.963069 C14.3324708,12.2968621 14.4550018,13.0607931 14.3834619,13.6373448 C14.4397805,13.6305172 14.4968602,13.6282414 14.5547009,13.6282414 C15.4938513,13.6282414 16.2571965,14.3777586 16.2571965,15.3002414 C16.2571965,15.5862414 16.1826124,15.8547931 16.0532319,16.0899655 C16.3089487,16.2318276 16.9604177,16.5504483 17.5319752,16.4798966 C17.9886124,16.423 18.1621345,16.2697586 18.2245416,16.1832759 C18.2671611,16.1241034 18.3120637,16.0543103 18.2702053,16.005 L17.0578336,14.6827241 C17.0578336,14.6827241 16.8584354,14.4976207 16.9246478,14.4255517 C16.9931434,14.3519655 17.1156743,14.4574138 17.2031965,14.5294828 C17.8204177,15.0354828 18.573108,15.7978966 18.573108,15.7978966 C18.586046,15.807 18.6362761,15.9033448 18.9148248,15.9534138 C19.1545593,15.9943793 19.5792319,15.9701034 19.8722407,15.7334138 C19.9468248,15.6727241 20.0214088,15.5991379 20.0830549,15.5217586 C20.0777274,15.5255517 20.0739221,15.5308621 20.0693558,15.5323793 C20.379108,15.1424483 20.035108,14.7487241 20.035108,14.7487241 L18.6202938,13.1882414 C18.6202938,13.1882414 18.4170903,13.0046552 18.4863469,12.9303103 C18.5479929,12.8665862 18.6781345,12.9636897 18.7671788,13.0357586 C19.2146832,13.4036897 19.8478867,14.0280345 20.4552142,14.6114138 C20.5731788,14.6956207 21.1066832,15.0203103 21.8129487,14.5651379 C22.2406655,14.2882414 22.3274265,13.9498966 22.3144885,13.6934828 C22.2855681,13.3551379 22.0161522,13.1138966 22.0161522,13.1138966 L20.0830549,11.2052069 C20.0830549,11.2052069 19.8790903,11.0345172 19.9506301,10.9480345 C20.0099929,10.8752069 20.1424177,10.9798966 20.2299398,11.0512069 C20.8456389,11.5572069 22.5123646,13.0577586 22.5123646,13.0577586 C22.5359575,13.0744483 23.1120814,13.4772759 23.8236743,13.0319655 C24.0786301,12.8726552 24.2407363,12.6321724 24.2551965,12.3522414 C24.2787894,11.8667241 23.930223,11.5784483 23.930223,11.5784483" id="Fill-7" fill="#FFFFFF"></path>
                <path d="M14.554092,13.9973103 C14.2542336,13.9942759 13.9262159,14.1695172 13.8843575,14.1429655 C13.8600035,14.1285517 13.9018619,14.0102069 13.9300212,13.941931 C13.9589416,13.8736552 14.3539327,12.7076552 13.3911894,12.3025517 C12.6552425,11.9915172 12.2054549,12.3412414 12.0501982,12.4990345 C12.0098619,12.54 11.9915965,12.5369655 11.9870301,12.4846207 C11.9718088,12.2744828 11.8766761,11.7062759 11.2411894,11.5158621 C10.3324814,11.2427586 9.7487469,11.8648276 9.60033982,12.0893793 C9.53412743,11.5811034 9.09727788,11.1866207 8.5607292,11.1866207 C7.97775575,11.1858621 7.50589735,11.6493793 7.50513628,12.2213793 C7.50513628,12.7926207 7.97699469,13.2561379 8.55996814,13.2561379 C8.84232212,13.2568966 9.0988,13.1461379 9.28830442,12.9678621 C9.29439292,12.9731724 9.29667611,12.9830345 9.29363186,13.002 C9.24949027,13.2584138 9.16729558,14.1892414 10.1597204,14.5677931 C10.5577558,14.7195172 10.8964283,14.6064828 11.1772602,14.4137931 C11.2602159,14.3561379 11.273915,14.3804138 11.2617381,14.4570345 C11.2259681,14.696 11.2716319,15.2088276 12.0022513,15.4993793 C12.5593487,15.7216552 12.8888885,15.4955862 13.104269,15.2991034 C13.1986407,15.2148966 13.2237558,15.2285517 13.2290832,15.3582759 C13.2557204,16.0508966 13.840977,16.6008966 14.5525699,16.6016552 C15.2854726,16.6024138 15.8798619,16.0197931 15.8798619,15.3013793 C15.880623,14.5814483 15.2869947,14.0056552 14.554092,13.9973103" id="Fill-9" fill="#FFFFFF"></path>
                <path d="M24.1175204,11.0805655 C22.6273611,9.80304828 19.1820336,6.86187586 18.2489717,6.17456552 C17.7162283,5.78084138 17.3524407,5.57222069 17.0327947,5.47966897 C16.889715,5.43718621 16.6918389,5.38863448 16.4361221,5.38787586 C16.1986708,5.38787586 15.943715,5.43035862 15.6773434,5.51304828 C15.0745823,5.70042759 14.4741044,6.16925517 13.8926531,6.62291034 L13.8629717,6.64642759 C13.3218566,7.06822069 12.7624761,7.50594483 12.3393257,7.59849655 C12.1543876,7.63946207 11.9641221,7.66070345 11.7753788,7.66070345 C11.3012372,7.65994483 10.8750425,7.52566897 10.7152195,7.32615172 C10.6885823,7.29277241 10.7060867,7.23891034 10.7677327,7.16153103 L10.7753434,7.15166897 L12.0866531,5.76415172 C13.1140867,4.75594483 14.0836796,3.80311724 16.3166354,3.75304828 C16.3539274,3.75153103 16.3919805,3.75077241 16.4285115,3.75077241 C17.8182106,3.75228966 19.2079097,4.36373793 19.3639274,4.43353103 C20.6668655,5.05787586 22.0116619,5.37497931 23.364069,5.37649655 C24.7735558,5.37649655 26.2279451,5.03435862 27.7561575,4.34325517 C27.5856796,4.20215172 27.4075912,4.06484138 27.2249363,3.9298069 C25.882423,4.5018069 24.6023168,4.79084138 23.3678743,4.79008276 C22.1075558,4.78932414 20.8472372,4.49194483 19.6242106,3.90553103 C19.5595204,3.87594483 18.0259805,3.16511724 16.4292726,3.16435862 C16.3874142,3.16435862 16.3447947,3.16511724 16.3029363,3.16587586 C14.4276796,3.20911724 13.3705646,3.86304828 12.6604938,4.4358069 C11.9694496,4.45249655 11.3735381,4.61635862 10.8430779,4.76201379 C10.3696973,4.89097931 9.96100708,5.00249655 9.56221062,5.00249655 C9.39782124,5.00249655 9.1025292,4.98808276 9.07589204,4.98732414 C8.61697168,4.97366897 6.30790973,4.41684138 4.47070619,3.73332414 C4.28272389,3.86456552 4.10235221,3.99884138 3.9265469,4.13615172 C5.84594513,4.90918621 8.18240531,5.50622069 8.91911327,5.55325517 C9.12383894,5.56615172 9.34226372,5.58891034 9.56144956,5.58966897 C10.0492903,5.58966897 10.5356088,5.4553931 11.0067062,5.32642759 C11.2844938,5.24904828 11.5919628,5.16635862 11.9146531,5.10566897 C11.8286531,5.18835862 11.7426531,5.27256552 11.655892,5.35753103 L10.3240336,6.77235862 C10.2190071,6.87628966 9.99144956,7.15394483 10.1413788,7.49532414 C10.2007416,7.6333931 10.3225115,7.7653931 10.4922283,7.87766897 C10.8095912,8.08704828 11.3781044,8.22966897 11.9062814,8.22966897 C12.1056796,8.22966897 12.2951841,8.20994483 12.4702283,8.17201379 C13.0280867,8.04835862 13.6141044,7.59015172 14.235131,7.10615172 C14.7298212,6.72001379 15.4315204,6.22994483 15.9695912,6.08656552 C16.1202814,6.04635862 16.3044584,6.02132414 16.4528655,6.02132414 C16.4970071,6.02208276 16.5388655,6.02284138 16.5776796,6.02815172 C16.9330956,6.07291034 17.2770956,6.19125517 17.8897504,6.6433931 C18.9833965,7.45056552 23.8229894,11.6078069 23.8701752,11.6487724 C23.8739805,11.6510483 24.1822106,11.9127724 24.1609009,12.3474621 C24.149485,12.5894621 24.0124938,12.8049103 23.7742814,12.9543586 C23.5680336,13.0833241 23.3541752,13.1485655 23.1387947,13.1485655 C22.8161044,13.1478069 22.5931133,12.9983586 22.5786531,12.9892552 C22.5603876,12.9740828 20.9027947,11.4811172 20.2931841,10.979669 C20.1957681,10.9007724 20.1013965,10.8294621 20.0055027,10.8294621 C19.9545115,10.8287034 19.9096088,10.8507034 19.8791664,10.8886345 C19.7825115,11.0047034 19.8905823,11.1647724 20.0169186,11.2709793 L21.9538212,13.1827034 C21.9561044,13.1849793 22.1950779,13.4042207 22.220954,13.6978069 C22.2361752,14.0149103 22.0824407,14.2804276 21.7612726,14.4860138 C21.532954,14.6347034 21.3015912,14.7090483 21.0747947,14.7090483 C20.7772195,14.7090483 20.5686885,14.5762897 20.5222637,14.5444276 L20.2444761,14.2758759 C19.7368478,13.7850483 19.2124761,13.277531 18.8289009,12.9634621 C18.7352903,12.8868414 18.6348301,12.8162897 18.5404584,12.8162897 C18.4932726,12.8162897 18.4506531,12.8337379 18.4186885,12.8671172 C18.3745469,12.9149103 18.3441044,13.0006345 18.4529363,13.1432552 C18.4978389,13.2024276 18.5511133,13.2502207 18.5511133,13.2502207 L19.9644053,14.8091862 C19.9758212,14.8236 20.255131,15.1490483 19.9956088,15.4744966 L19.9461398,15.5367034 C19.9035204,15.5829793 19.8578566,15.6239448 19.8144761,15.6611172 C19.5732195,15.8553241 19.2512903,15.8758069 19.1241929,15.8758069 C19.0556973,15.8758069 18.990246,15.8697379 18.9331664,15.8598759 C18.793131,15.8356 18.6995204,15.797669 18.6546177,15.7445655 L18.6371133,15.7271172 C18.560246,15.6482207 17.847892,14.9343586 17.258069,14.4511172 C17.1804407,14.3873931 17.0837858,14.3069793 16.9833257,14.3069793 C16.9338566,14.3069793 16.889715,14.3259448 16.8554673,14.3631172 C16.7390248,14.4882897 16.914069,14.675669 16.9886531,14.7447034 L18.1941752,16.0502897 C18.1926531,16.061669 18.1774319,16.0889793 18.1485115,16.1299448 C18.105131,16.1883586 17.9590071,16.3324966 17.5213965,16.3856 C17.4688832,16.3931862 17.4156088,16.3954621 17.3615735,16.3954621 C16.9110248,16.3954621 16.4292726,16.1807724 16.1819274,16.0518069 C16.2945646,15.8173931 16.3531664,15.5594621 16.3531664,15.301531 C16.3539274,14.3267034 15.5479628,13.5339448 14.5562991,13.5331862 C14.5349894,13.5331862 14.5121575,13.5339448 14.4908478,13.5347034 C14.5235735,13.0901517 14.4596442,12.2480828 13.5790956,11.8778759 C13.3256619,11.7693931 13.0729894,11.7147724 12.8271664,11.7147724 C12.6346177,11.7147724 12.4496796,11.7473931 12.2761575,11.8126345 C12.0935027,11.4644276 11.7913611,11.2110483 11.3956088,11.0790483 C11.1779451,11.0047034 10.9602814,10.9667724 10.7502283,10.9667724 C10.3841575,10.9667724 10.046246,11.0729793 9.74562655,11.2831172 C9.45718407,10.9311172 9.02109558,10.7224966 8.56217522,10.7224966 C8.16109558,10.7224966 7.77447611,10.879531 7.48831681,11.1587034 C7.11311327,10.8772552 5.62523717,9.94870345 1.64107788,9.06035862 C1.44776814,9.01711724 1.00559115,8.89270345 0.734653097,8.81456552 C0.688989381,9.02622069 0.654741593,9.24091034 0.632670796,9.45635862 C0.632670796,9.45635862 1.36709558,9.62932414 1.51169735,9.66118621 C5.58109558,10.5487724 6.92589204,11.4720138 7.1526885,11.6464966 C7.07582124,11.8270483 7.03624602,12.023531 7.03548496,12.221531 C7.03548496,13.0469103 7.71891858,13.7190483 8.5606531,13.7198069 C8.65502478,13.7198069 8.74787434,13.7114621 8.83996283,13.6947724 C8.96706018,14.3024276 9.37194513,14.7629103 9.9906885,14.9996 C10.1710602,15.0678759 10.3544761,15.1027724 10.5340867,15.1027724 C10.6505292,15.1027724 10.7669717,15.0883586 10.881131,15.059531 C10.9952903,15.3447724 11.2525292,15.7005655 11.827131,15.929669 C12.0288124,16.0093241 12.2304938,16.0510483 12.4260867,16.0510483 C12.5866708,16.0510483 12.7426885,16.0237379 12.8918566,15.9691172 C13.1673611,16.6276 13.8226354,17.0653241 14.5540159,17.0653241 C15.0380513,17.0660828 15.5030602,16.8718759 15.8417327,16.5289793 C16.1324584,16.687531 16.7451133,16.9742897 17.3638566,16.9750483 C17.4445292,16.9750483 17.5206354,16.9697379 17.5952195,16.9606345 C18.2101575,16.8840138 18.4963168,16.6480828 18.6279805,16.4644966 C18.6515735,16.4326345 18.6728832,16.3984966 18.6911487,16.3636 C18.8365115,16.4045655 18.9963345,16.4379448 19.1789894,16.4379448 C19.5146177,16.4379448 19.8365469,16.325669 20.1622814,16.0920138 C20.4826885,15.8659448 20.710246,15.5404966 20.7429717,15.2636 C20.7437327,15.2598069 20.7444938,15.2560138 20.7444938,15.2514621 C20.8525646,15.2734621 20.9629186,15.2848414 21.0740336,15.2848414 C21.4195558,15.2848414 21.7597504,15.1786345 22.0847239,14.9700138 C22.7118389,14.5664276 22.8206708,14.0384276 22.8100159,13.6932552 C22.9196088,13.7167724 23.031485,13.7273931 23.1433611,13.7273931 C23.4675735,13.7273931 23.7864584,13.6318069 24.0901221,13.4413931 C24.4790248,13.1978759 24.7134319,12.8246345 24.7484407,12.3907034 C24.7727947,12.0948414 24.6982106,11.7959448 24.5391487,11.5402897 C25.5894142,11.0964966 27.9905646,10.2362207 30.8171487,9.61111724 C30.7996442,9.39491034 30.7684407,9.18325517 30.7288655,8.97084138 C27.3086531,9.71656552 24.7568124,10.8013931 24.1175204,11.0805655 M14.5540159,16.5084966 C13.8903699,16.5077379 13.3500159,16.0009793 13.3256619,15.3553931 C13.3233788,15.3000138 13.3180513,15.1528414 13.191715,15.1528414 C13.1392018,15.1528414 13.0935381,15.1831862 13.0417858,15.2302207 C12.8956619,15.3629793 12.7092018,15.4972552 12.4375027,15.4972552 C12.3149717,15.4972552 12.1810248,15.4699448 12.0402283,15.4130483 C11.3385292,15.1346345 11.3286354,14.6612552 11.3575558,14.4708414 C11.3651664,14.4192552 11.3682106,14.3669103 11.3324407,14.3259448 L11.2890602,14.2887724 L11.2449186,14.2887724 C11.2099097,14.2887724 11.1733788,14.3024276 11.1231487,14.3365655 C10.9207062,14.4769103 10.7258743,14.5444276 10.5279982,14.5444276 C10.4191664,14.5444276 10.3072903,14.5231862 10.1961752,14.4807034 C9.27224602,14.1287034 9.34530796,13.2722207 9.39021062,13.0150483 C9.39706018,12.9619448 9.38412212,12.9217379 9.34987434,12.8951862 L9.28442301,12.8420828 L9.22353805,12.8989793 C9.04392743,13.069669 8.80875929,13.1629793 8.56141416,13.1629793 C8.03171504,13.1622207 7.60171504,12.7404276 7.60171504,12.221531 C7.60247611,11.7011172 8.03323717,11.2800828 8.56217522,11.2808414 C9.04012212,11.2808414 9.44729027,11.6336 9.50817522,12.1024276 L9.54090088,12.3550483 L9.68245841,12.1403586 C9.69844071,12.1160828 10.0858212,11.5402897 10.7981752,11.5410483 C10.9336442,11.5410483 11.0736796,11.5630483 11.2144761,11.605531 C11.7822283,11.7754621 11.8788832,12.2814621 11.8933434,12.4916 C11.9039982,12.6144966 11.9922814,12.6205655 12.0097858,12.6205655 C12.0592549,12.6205655 12.0950248,12.5902207 12.1209009,12.563669 C12.2274496,12.4544276 12.4610956,12.2708414 12.8264053,12.2708414 C12.9938389,12.2716 13.1719274,12.3102897 13.3553434,12.3884276 C14.2579628,12.7684966 13.8485115,13.8950483 13.8439451,13.9071862 C13.7663168,14.0938069 13.7632726,14.1757379 13.8363345,14.223531 L13.8713434,14.2402207 L13.8979805,14.2402207 C13.9383168,14.2402207 13.989308,14.2227724 14.0730248,14.1947034 C14.1955558,14.1537379 14.3812549,14.0907724 14.554777,14.0907724 L14.554777,14.0907724 C15.2344053,14.0983586 15.7869363,14.6407724 15.7869363,15.3007724 C15.7861752,15.9668414 15.2328832,16.5084966 14.5540159,16.5084966" id="Fill-11" fill="#000000"></path>
                <path d="M84.9660212,3.6614069 C84.3990301,2.96347586 83.537508,2.61526897 82.3822159,2.61526897 C81.228446,2.61526897 80.3669239,2.96347586 79.8006938,3.6614069 C79.2329416,4.35933793 78.9490655,5.1832 78.9490655,6.13451034 C78.9490655,7.10251034 79.2329416,7.93016552 79.8006938,8.6189931 C80.3669239,9.30478621 81.228446,9.64995862 82.3822159,9.64995862 C83.537508,9.64995862 84.3990301,9.30478621 84.9660212,8.6189931 C85.5330124,7.93016552 85.8161274,7.10251034 85.8161274,6.13451034 C85.8161274,5.1832 85.5330124,4.35933793 84.9660212,3.6614069 M83.5603398,7.66464828 C83.2848354,8.02347586 82.8913664,8.20251034 82.3768885,8.20251034 C81.8631717,8.20251034 81.4674195,8.02347586 81.1903929,7.66464828 C80.9126053,7.30582069 80.774092,6.79602759 80.774092,6.13451034 C80.774092,5.47451034 80.9126053,4.96547586 81.1903929,4.60892414 C81.4674195,4.25161379 81.8631717,4.07333793 82.3768885,4.07333793 C82.8913664,4.07333793 83.2848354,4.25161379 83.5603398,4.60892414 C83.8350832,4.96547586 83.9735965,5.47451034 83.9735965,6.13451034 C83.9735965,6.79602759 83.8350832,7.30582069 83.5603398,7.66464828" id="Fill-13" fill="#060E9F"></path>
                <path d="M70.4716726,3.07802759 C69.8963097,2.79202759 69.2379912,2.64713103 68.4967168,2.64713103 C67.3581681,2.64713103 66.5552478,2.9392 66.0871947,3.52106207 C65.7934248,3.89430345 65.6282743,4.36995862 65.5894602,4.94878621 L67.2911947,4.94878621 C67.332292,4.69313103 67.4160088,4.49057931 67.5415841,4.34188966 C67.7173894,4.13933793 68.0149646,4.03844138 68.437354,4.03844138 C68.8140796,4.03844138 69.0987168,4.08926897 69.2943097,4.1932 C69.4876195,4.29561379 69.5850354,4.48375172 69.5850354,4.75382069 C69.5850354,4.97761379 69.4594602,5.14071724 69.2052655,5.24692414 C69.063708,5.30761379 68.8293009,5.35768276 68.4997611,5.39864828 L67.897,5.47147586 C67.2128053,5.55644138 66.6914779,5.69830345 66.3398673,5.89706207 C65.6960088,6.2612 65.3740796,6.84988966 65.3740796,7.66388966 C65.3740796,8.29126897 65.5727168,8.77602759 65.9745575,9.11816552 C66.373354,9.46030345 66.8817434,9.60368276 67.4951593,9.63175172 C71.3430885,9.80016552 71.2989469,7.64113103 71.3347168,7.19126897 L71.3347168,4.70602759 C71.3347168,3.90871724 71.0462743,3.36554483 70.4716726,3.07802759 L70.4716726,3.07802759 Z M69.5781858,6.84988966 C69.5667699,7.42871724 69.3978142,7.82775172 69.0728407,8.04623448 C68.7478673,8.26471724 68.3939735,8.37471724 68.0096372,8.37471724 C67.7653363,8.37471724 67.5598496,8.30871724 67.3901327,8.17671724 C67.221177,8.04547586 67.1366991,7.83154483 67.1366991,7.53568276 C67.1366991,7.20416552 67.2752124,6.95988966 67.5522389,6.80133793 C67.7173894,6.70878621 67.9860442,6.62913103 68.3627699,6.5654069 L68.7646106,6.49182069 C68.9647699,6.45464828 69.1223097,6.4152 69.2372301,6.37195862 C69.3529115,6.3309931 69.4655487,6.27637241 69.5781858,6.20657931 L69.5781858,6.84988966 Z" id="Fill-15" fill="#060E9F"></path>
                <path d="M61.6993681,4.1278069 C62.1385009,4.1278069 62.4619522,4.26132414 62.6704832,4.5276 C62.8135628,4.7256 62.9033681,4.94787586 62.9376159,5.19442759 L64.8357044,5.19442759 C64.7314389,4.25373793 64.3965717,3.59753103 63.8311027,3.2258069 C63.2633504,2.8556 62.5372973,2.66897931 61.648377,2.66897931 C60.6034389,2.66897931 59.781492,2.98456552 59.1886248,3.61346207 C58.5942354,4.24387586 58.2974212,5.12387586 58.2974212,6.25649655 C58.2974212,7.25863448 58.5660761,8.07566897 59.1041469,8.70532414 C59.6414566,9.33422069 60.4801469,9.6498069 61.6202177,9.6498069 C62.7618106,9.6498069 63.6233327,9.27201379 64.204023,8.51718621 C64.5693327,8.04911724 64.7725363,7.55297931 64.8159168,7.02801379 L62.9239168,7.02801379 C62.8858637,7.37470345 62.7755097,7.65766897 62.5920938,7.87615172 C62.4102,8.09311724 62.1019699,8.20235862 61.6674035,8.20235862 C61.0547487,8.20235862 60.6376867,7.92849655 60.4162177,7.37849655 C60.2944478,7.08566897 60.2335628,6.69725517 60.2335628,6.21401379 C60.2335628,5.70725517 60.2944478,5.30063448 60.4162177,4.99415172 C60.6468195,4.41684138 61.0752973,4.1278069 61.6993681,4.1278069" id="Fill-17" fill="#060E9F"></path>
                <path d="M57.7885752,2.66905517 C53.8904159,2.66905517 54.1217788,6.05857241 54.1217788,6.05857241 L54.1217788,9.5011931 L55.8904867,9.5011931 L55.8904867,6.27174483 C55.8904867,5.74298621 55.9589823,5.35153793 56.0929292,5.09664138 C56.336469,4.64450345 56.8098496,4.41843448 57.5176372,4.41843448 C57.5709115,4.41843448 57.6409292,4.42071034 57.7276903,4.42450345 C57.8129292,4.42905517 57.9111062,4.43664138 58.0237434,4.44953793 L58.0237434,2.68195172 C57.945354,2.67664138 57.8943628,2.67436552 57.872292,2.67208966 C57.8494602,2.66981379 57.8220619,2.66905517 57.7885752,2.66905517" id="Fill-19" fill="#060E9F"></path>
                <path d="M51.2905522,7.70235172 C51.2159681,7.80628276 51.1368177,7.8958 51.0485345,7.96483448 C50.7989062,8.16662759 50.4594726,8.22807586 50.059915,8.22807586 C49.6816673,8.22807586 49.3863752,8.17269655 49.1184814,8.0058 C48.6763044,7.74028276 48.4281982,7.28890345 48.4015611,6.62738621 L53.2967115,6.62738621 C53.3035611,6.05766207 53.2845345,5.62145517 53.2381097,5.3180069 C53.1566761,4.80062759 52.9778265,4.34545517 52.7023221,3.95324828 C52.3978973,3.50869655 52.0089947,3.18324828 51.5409416,2.97690345 C51.0728885,2.77131724 50.5462336,2.66814483 49.9617381,2.66814483 C48.9761628,2.66814483 48.1755257,2.97386897 47.5590655,3.58304138 C46.9418442,4.19373103 46.632092,5.06917931 46.632092,6.21242069 C46.632092,7.43304138 46.9738088,8.31304138 47.6587646,8.85469655 C48.3414372,9.3955931 49.1314195,9.66642069 50.0249062,9.66642069 C51.1086584,9.66642069 51.951154,9.34628276 52.553154,8.70373103 C52.8773664,8.36614483 53.081331,8.0315931 53.167331,7.70235172 L51.2905522,7.70235172 Z M48.9129947,4.4675931 C49.1618619,4.21724828 49.5111894,4.09131724 49.9617381,4.09131724 C50.3765168,4.09131724 50.7243221,4.20966207 51.0043929,4.44635172 C51.2837027,4.6838 51.4397204,5.03124828 51.471685,5.48945517 L48.4457027,5.48945517 C48.5088708,5.05931724 48.6648885,4.71945517 48.9129947,4.4675931 L48.9129947,4.4675931 Z" id="Fill-21" fill="#060E9F"></path>
                <path d="M45.9214885,9.50035862 L44.305754,9.50035862 L44.305754,5.50470345 C44.305754,5.1398069 44.183223,4.27118621 43.1169752,4.27118621 C42.4061434,4.27118621 41.8931876,4.77491034 41.8931876,5.50470345 L41.8931876,9.50035862 L40.2751699,9.50035862 L40.2751699,5.50470345 C40.2751699,5.1398069 40.1648159,4.27118621 39.0993292,4.27118621 C38.3763204,4.27118621 37.8740195,4.77491034 37.8740195,5.50470345 L37.8740195,9.50035862 L36.2575239,9.50035862 L36.2575239,5.54263448 C36.2575239,3.8933931 37.3717186,2.64622069 39.0993292,2.64622069 C39.9578071,2.64622069 40.6549398,2.99973793 41.1085327,3.56642759 C41.5857186,2.99973793 42.2965504,2.64622069 43.1169752,2.64622069 C44.8818779,2.64622069 45.9214885,3.84256552 45.9214885,5.54263448 L45.9214885,9.50035862 Z" id="Fill-23" fill="#060E9F"></path>
                <path d="M78.422715,0.582544828 C78.422715,0.582544828 76.641069,0.395165517 76.641069,1.80088966 L76.6395469,3.66254483 C76.4424319,3.35075172 76.185954,3.1079931 75.8693522,2.93275172 C75.5535115,2.75751034 75.1920071,2.66875172 74.7840779,2.66875172 C73.900485,2.66875172 73.1965027,2.99192414 72.6675646,3.63751034 C72.1386265,4.28385517 71.8752991,5.21468276 71.8752991,6.34047586 C71.8752991,7.31682069 72.1431929,8.11792414 72.6797416,8.74151034 C73.2162903,9.36509655 74.2680779,9.6382 75.2019009,9.6382 C78.459246,9.6382 78.4211929,6.89502759 78.4211929,6.89502759 L78.422715,0.582544828 Z M76.3008743,7.67868276 C76.0428743,8.04206207 75.6631044,8.22413103 75.1676531,8.22413103 C74.6683965,8.22413103 74.2985204,8.04130345 74.0542195,7.67564828 C73.8099186,7.3099931 73.6881487,6.7782 73.6881487,6.16902759 C73.6881487,5.60385517 73.8076354,5.13047586 74.048131,4.74888966 C74.2878655,4.36806207 74.6645912,4.17688966 75.178308,4.17688966 C75.5162195,4.17688966 75.8115115,4.28157931 76.0672283,4.49095862 C76.4820071,4.8384069 76.689777,5.46123448 76.689777,6.2684069 C76.689777,6.84495862 76.5596354,7.31530345 76.3008743,7.67868276 L76.3008743,7.67868276 Z" id="Fill-25" fill="#060E9F"></path>
                <path d="M49.1745717,20.5255448 C49.1745717,20.7614759 49.0878106,20.9625103 48.9135274,21.1309241 C48.7407664,21.2993379 48.5322354,21.3827862 48.2894566,21.3827862 L47.4066248,21.3827862 L47.4066248,15.3464414 C47.4066248,14.1720966 47.8092265,13.4369931 48.4721115,12.9400966 C48.9104832,12.6116138 49.5634743,12.2983034 50.7865009,12.2983034 C51.6122531,12.2983034 52.5795628,12.613131 53.1016513,13.2389931 C53.6884301,13.9422345 53.932731,14.7258897 53.932731,15.7500276 C53.932731,16.8098207 53.6724478,17.6640276 53.1534035,18.3209931 C52.6328372,18.9597517 51.9653858,19.2768552 51.1502885,19.2768552 C50.7164832,19.2768552 50.3359522,19.2017517 50.0071735,19.0515448 C49.6586071,18.883131 49.3823416,18.6229241 49.1745717,18.2701655 L49.1745717,20.5255448 Z M52.139669,15.8258897 C52.139669,15.1704414 52.0095274,14.6667172 51.7484832,14.3139586 C51.4889611,13.9627172 51.1160407,13.7836828 50.6297221,13.7836828 C50.1631912,13.7836828 49.7978814,13.9627172 49.5375982,14.3139586 C49.2955805,14.6333379 49.1745717,15.1385793 49.1745717,15.8258897 C49.1745717,16.4654069 49.3039522,16.9425793 49.5649965,17.2619586 C49.8245186,17.6154759 50.1974389,17.7914759 50.6822354,17.7914759 C51.1327841,17.7914759 51.4889611,17.6154759 51.7484832,17.2619586 C52.0095274,16.9092 52.139669,16.4320276 52.139669,15.8258897 L52.139669,15.8258897 Z" id="Fill-27" fill="#00ADEE"></path>
                <path d="M65.6533133,18.7208621 L65.6533133,18.2945172 C65.3481274,18.7656207 64.9341097,19.056931 64.4143044,19.1760345 C63.8944991,19.2921034 63.3800212,19.2503793 62.8701097,19.0485862 C62.3586761,18.8483103 61.9203044,18.4743103 61.5534726,17.9296207 C61.1881628,17.3818966 61.005508,16.6642414 61.005508,15.7751379 C61.005508,14.7358276 61.2482867,13.8914828 61.7323221,13.2451379 C62.2178796,12.5995517 62.9979681,12.3044483 64.0703044,12.2763793 C65.1274195,12.249069 65.7415965,12.4834828 66.3428354,12.931069 C67.001154,13.4211379 67.3900566,14.1736897 67.3900566,15.3480345 L67.3900566,18.8983793 C67.3923398,20.0294828 66.5901805,22.1225172 64.0703044,21.945 C62.5086053,21.8342414 61.6417558,21.2045862 61.1584814,19.7798966 L63.0230832,19.7798966 C63.1593133,20.0143103 63.3670832,20.1948621 63.6494372,20.3192759 C63.9287469,20.4467241 64.2118619,20.4793448 64.4911717,20.420931 C64.7712425,20.3625172 65.0269593,20.1978966 65.2583221,19.9308621 C65.4866407,19.6615517 65.6190655,19.2587241 65.6533133,18.7208621 M62.7414903,15.8267241 C62.7414903,16.9843793 63.082446,17.6261724 63.7643575,17.7528621 C64.4439858,17.8772759 64.9470478,17.7217586 65.2704991,17.2855517 C65.4234726,17.1027241 65.5338265,16.8114138 65.6023221,16.4184483 C65.6692956,16.0239655 65.674623,15.6340345 65.6144991,15.2478966 C65.5566584,14.861 65.4158619,14.5165862 65.1936319,14.2154138 C64.9729239,13.9134828 64.6487115,13.7617586 64.2232779,13.7617586 C63.6433487,13.7617586 63.253685,13.9726552 63.0489593,14.3898966 C62.8427115,14.810931 62.7414903,15.2896207 62.7414903,15.8267241" id="Fill-29" fill="#00ADEE"></path>
                <path d="M59.4919841,12.7549172 C58.9166212,12.4696759 58.2583027,12.3247793 57.5185504,12.3247793 C56.3784796,12.3247793 55.5755593,12.6160897 55.1075062,13.1987103 C54.8144973,13.5711931 54.6485858,14.0468483 54.6105327,14.6264345 L56.3122673,14.6264345 C56.3541257,14.3707793 56.4370814,14.1682276 56.5626566,14.0187793 C56.739223,13.8162276 57.0367982,13.715331 57.4584265,13.715331 C57.8359133,13.715331 58.1197894,13.7661586 58.3146212,13.8700897 C58.507931,13.9732621 58.606108,14.1614 58.606108,14.4322276 C58.606108,14.6545034 58.4797717,14.8191241 58.2263381,14.9238138 C58.0847805,14.9845034 57.8503735,15.035331 57.5215947,15.0762966 L56.9180726,15.1476069 C56.2338779,15.233331 55.7125504,15.3759517 55.3617009,15.5739517 C54.7163204,15.9380897 54.3951522,16.5267793 54.3951522,17.3407793 C54.3951522,17.9674 54.5937894,18.4529172 54.9956301,18.7942966 C55.3944265,19.1364345 55.9028159,19.281331 56.5169929,19.3086414 C60.3626389,19.4770552 60.3192584,17.3172621 60.3550283,16.8689172 L60.3550283,14.3829172 C60.3550283,13.5856069 60.0673469,13.0431931 59.4919841,12.7549172 L59.4919841,12.7549172 Z M58.5977363,16.5267793 C58.5870814,17.1063655 58.4181257,17.5046414 58.0939133,17.7231241 C57.7697009,17.9416069 57.415046,18.0508483 57.0307097,18.0508483 C56.7871699,18.0508483 56.5809221,17.9848483 56.4119664,17.8536069 C56.2414885,17.7223655 56.1562496,17.5084345 56.1562496,17.2125724 C56.1562496,16.8810552 56.2955239,16.6360207 56.5733115,16.477469 C56.739223,16.3849172 57.0071168,16.3060207 57.3830814,16.2430552 L57.7856832,16.169469 C57.9858425,16.1315379 58.1433823,16.0920897 58.2567805,16.0496069 C58.373223,16.0078828 58.4858602,15.9532621 58.5977363,15.883469 L58.5977363,16.5267793 Z" id="Fill-31" fill="#00ADEE"></path>
                <path d="M74.0815416,13.3023379 C73.5137894,12.6044069 72.6522673,12.2562 71.4969752,12.2562 C70.3439664,12.2562 69.4824442,12.6044069 68.9154531,13.3023379 C68.3484619,14.000269 68.0645858,14.824131 68.0645858,15.7762 C68.0645858,16.7434414 68.3484619,17.5703379 68.9154531,18.2591655 C69.4824442,18.9449586 70.3439664,19.290131 71.4969752,19.290131 C72.6522673,19.290131 73.5137894,18.9449586 74.0815416,18.2591655 C74.6485327,17.5703379 74.9308867,16.7434414 74.9308867,15.7762 C74.9308867,14.824131 74.6485327,14.000269 74.0815416,13.3023379 M72.6750991,17.3040621 C72.4011168,17.6636483 72.0061257,17.8426828 71.4931699,17.8426828 C70.978692,17.8426828 70.5821788,17.6636483 70.3059133,17.3040621 C70.0273646,16.9467517 69.8896124,16.4369586 69.8896124,15.7762 C69.8896124,15.1154414 70.0273646,14.6064069 70.3059133,14.2498552 C70.5821788,13.8925448 70.978692,13.7150276 71.4931699,13.7150276 C72.0061257,13.7150276 72.4011168,13.8925448 72.6750991,14.2498552 C72.9513646,14.6064069 73.0883558,15.1154414 73.0883558,15.7762 C73.0883558,16.4369586 72.9513646,16.9467517 72.6750991,17.3040621" id="Fill-33" fill="#00ADEE"></path>
            </g>
        </g>
    </g>
</svg>